<?xml version="1.0" encoding="utf-8"?>
<!-- Generator: Adobe Illustrator 27.4.1, SVG Export Plug-In . SVG Version: 6.00 Build 0)  -->
<svg version="1.1" id="katman_1" xmlns="http://www.w3.org/2000/svg" xmlns:xlink="http://www.w3.org/1999/xlink" x="0px" y="0px"
	 viewBox="0 0 603.05 466.5" style="enable-background:new 0 0 603.05 466.5;" xml:space="preserve">
<style type="text/css">
	.st0{fill:#3FA9F5;}
	.st1{opacity:0.5;stroke:#000000;stroke-width:3;stroke-linecap:round;stroke-miterlimit:10;}
	.st2{display:none;}
	.st3{display:inline;}
	
		.st4{display:none;fill:none;stroke:#000000;stroke-width:3;stroke-linecap:round;stroke-linejoin:round;stroke-miterlimit:133.3333;}
	.st5{display:none;fill-rule:evenodd;clip-rule:evenodd;fill:#080341;}
</style>
<g>
	<g id="LoGo_00000067931029476798258620000003207959525568132796_">
		<path class="st0" d="M0.02,220.39c-0.57-33.54,11.89-61.8,35.56-85.08c19.33-19.02,42.8-30.12,69.88-32.73
			c37.81-3.65,70.37,8.07,97.34,34.81c11.42,11.32,19.94,24.68,25.74,39.7c4.18,10.83,10.65,19.71,20.57,25.94
			c7.42,4.65,15.54,7.15,24.23,7.65c9.81,0.57,19.25-5.12,23.44-13.85c8.6-17.95,22.43-29.58,41.94-33.82
			c25.66-5.58,52.25,7.46,64.05,30.98c14.49,28.89,3.59,63.09-24.98,78.34c-28.64,15.29-64.57,3.99-79.31-24.95
			c-1.21-2.38-2.06-5-3.57-7.16c-4.62-6.6-11.22-10.05-19.18-9.76c-12.31,0.46-23.33,4.72-32.8,12.74
			c-6.7,5.67-11.22,12.78-14.5,20.87c-11.67,28.78-31.5,50.07-59.46,63.55c-19.38,9.34-39.93,12.86-61.4,10.93
			c-53.73-4.83-97.41-45.14-106.44-98.12C-0.02,233.76,0.2,227.1,0.02,220.39z M118.15,143.56c-42.04,0.04-76.81,33.53-76.9,76.71
			c-0.09,42.27,33.24,77.02,76.82,77.03c43.73,0.01,76.72-34.81,76.93-76.69C195.22,178.09,160.64,143.57,118.15,143.56z"/>
		<path class="st0" d="M350.14,102c55.5-0.83,106.84,38.73,117.58,97.06c1.3,7.05,2.68,14.13,2.43,21.42
			c-0.69,20-5.07,39.07-14.89,56.56c-18.32,32.64-45.86,53.28-82.74,59.95c-38.47,6.95-72.63-3.17-101.84-29.33
			c-8.29-7.43-15.2-16.04-21.04-25.53c-1.25-2.03-0.93-3.04,1.1-4.19c10.47-5.94,20.9-11.97,31.3-18.05c1.71-1,2.55-0.74,3.6,0.92
			c12.16,19.17,29.35,31.27,51.72,35.21c23.87,4.21,45.36-1.64,63.85-17.4c15.03-12.82,23.6-29.3,26.16-48.87
			c4.51-34.49-15.99-68.64-48.53-80.99c-34.98-13.28-72.97-0.6-93.06,31.14c-1.2,1.9-2.16,2.05-4.02,0.96
			c-10.23-6.01-20.5-11.96-30.83-17.79c-2.32-1.31-2.45-2.48-1.1-4.6c18.91-29.75,45.62-48.08,80.24-54.8
			C336.97,102.32,343.99,101.69,350.14,102z"/>
		<path class="st0" d="M176.65,220.65c0.58,31.72-26.94,58.83-59.12,58.54c-31.25-0.28-58.54-27-58.07-59.43
			c0.44-30.77,25.56-58.06,58.69-58.02C151.49,161.77,177.21,189.38,176.65,220.65z"/>
	</g>
	<g>
		<path class="st0" d="M34.94,401.95h-8.8L14.7,388.82H7.58v13.12h-7.4v-39.31c6.23,0,12.45,0.05,18.67,0.05
			c9.25,0.05,14.13,6.22,14.13,13.01c0,5.38-2.47,10.83-9.93,12.34l11.89,13.4V401.95z M7.58,369.59v12.56h11.27
			c4.71,0,6.73-3.14,6.73-6.28c0-3.14-2.08-6.28-6.73-6.28H7.58z"/>
		<path class="st0" d="M67.26,401.95H37.88c0-13.07,0-26.19,0-39.26h29.39v7.18H45.23v9.03h21.25v6.9H45.23v8.86h22.04V401.95z"/>
		<path class="st0" d="M100.88,394.55H80.35l-3.37,7.4h-8.02l17.61-39.26h8.08l17.61,39.26h-8.08L100.88,394.55z M90.61,370.93
			l-7.29,16.71H97.9L90.61,370.93z"/>
		<path class="st0" d="M123.61,362.69v32.42h20.19v6.84h-27.59v-39.26H123.61z"/>
	</g>
	<g>
		<path class="st0" d="M186.81,370.26c-2.86-4.6-7.46-5.27-11.89-5.33c-4.6,0-11.89,1.68-11.89,7.96c0,4.99,5.38,6.17,12,7.4
			c7.57,1.46,15.42,2.8,15.42,11.27c-0.06,8.86-8.97,10.99-15.54,10.99c-6.11,0-13.07-2.53-16.09-8.53l2.69-1.34
			c2.41,4.76,8.58,7.12,13.4,7.12c4.82,0,12.51-1.34,12.51-8.3c0.05-5.89-6.45-7.18-12.9-8.42c-7.18-1.4-14.53-2.86-14.53-10.09
			c-0.17-8.3,8.47-10.88,14.92-10.88c5.61,0,10.49,0.9,14.36,6.68L186.81,370.26z"/>
		<path class="st0" d="M234.78,382.38c-0.05,10.32-6.62,20.24-19.8,20.24c-13.18,0-19.8-9.98-19.8-20.36
			c0-10.54,6.56-20.19,19.8-20.19C228.22,362.07,234.84,371.78,234.78,382.38z M198.16,382.32c0.06,8.86,5.67,17.49,16.83,17.49
			c11.22,0,16.88-8.63,16.88-17.49c0-9.09-5.61-17.44-16.88-17.44C203.71,364.88,198.1,373.07,198.16,382.32z"/>
		<path class="st0" d="M245.01,362.69v36.4h22.1v2.86h-25.12v-39.26H245.01z"/>
		<path class="st0" d="M300.61,362.69v24.39c0,20.53-30.06,20.59-30.06,0v-24.39h2.97v24.39c0,16.88,24.11,16.83,24.11,0v-24.39
			H300.61z"/>
		<path class="st0" d="M320.03,365.44h-14.19v-2.69h31.4v2.69h-14.19v36.51h-3.03V365.44z"/>
		<path class="st0" d="M343.04,401.95v-39.26h2.97v39.26H343.04z"/>
		<path class="st0" d="M393.75,382.38c-0.05,10.32-6.62,20.24-19.8,20.24c-13.18,0-19.8-9.98-19.8-20.36
			c0-10.54,6.56-20.19,19.8-20.19C387.18,362.07,393.8,371.78,393.75,382.38z M357.12,382.32c0.06,8.86,5.67,17.49,16.83,17.49
			c11.22,0,16.88-8.63,16.88-17.49c0-9.09-5.61-17.44-16.88-17.44C362.68,364.88,357.07,373.07,357.12,382.32z"/>
		<path class="st0" d="M402.29,362.69l26.41,32.47v-32.47h2.97v39.26h-1.18l-26.47-32.42v32.42h-3.03v-39.26H402.29z"/>
		<path class="st0" d="M466.53,370.26c-2.86-4.6-7.46-5.27-11.89-5.33c-4.6,0-11.89,1.68-11.89,7.96c0,4.99,5.38,6.17,12,7.4
			c7.57,1.46,15.43,2.8,15.43,11.27c-0.06,8.86-8.97,10.99-15.53,10.99c-6.11,0-13.07-2.53-16.1-8.53l2.69-1.34
			c2.41,4.76,8.58,7.12,13.4,7.12c4.82,0,12.51-1.34,12.51-8.3c0.05-5.89-6.45-7.18-12.9-8.42c-7.18-1.4-14.53-2.86-14.53-10.09
			c-0.17-8.3,8.47-10.88,14.92-10.88c5.61,0,10.48,0.9,14.36,6.68L466.53,370.26z"/>
	</g>
</g>
<line class="st1" x1="580.17" y1="1.5" x2="580.17" y2="466.5"/>
<text transform="matrix(1 0 0 1 676.0005 43.1851)" class="st2"><tspan x="0" y="0" class="st3" style="font-family:'Nexa-Bold'; font-size:57px;">ALPEREN </tspan><tspan x="291.21" y="0" class="st3" style="font-family:'Nexa-Light'; font-size:57px;">KOLAMUÇ</tspan></text>
<text transform="matrix(1 0 0 1 676.0005 110.2163)" style="display:none;opacity:0.7;"><tspan x="0" y="0" class="st3" style="font-family:'Nexa-Light'; font-size:37px;">Embedded Systems </tspan><tspan x="0" y="44.4" class="st3" style="font-family:'Nexa-Light'; font-size:37px;">Hardware &amp; Software Developer</tspan></text>
<text transform="matrix(1 0 0 1 676.0005 306.2163)" style="display:none;opacity:0.7;"><tspan x="0" y="0" class="st3" style="font-family:'Nexa-Light'; font-size:35px;">Orhangazi Mah. Teknopark Cad.</tspan><tspan x="0" y="42" class="st3" style="font-family:'Nexa-Light'; font-size:35px;">Teknopark Apt. No:1 </tspan><tspan x="0" y="84" class="st3" style="font-family:'Nexa-Light'; font-size:35px;">Merkez/Düzce</tspan></text>
<text transform="matrix(1 0 0 1 676.0005 447.2163)" style="display:none;opacity:0.7;"><tspan x="0" y="0" class="st3" style="font-family:'Nexa-Light'; font-size:35px;">+90 538 358 47 61</tspan><tspan x="324.13" y="0" class="st3" style="font-family:'Nexa-Light'; font-size:35px; letter-spacing:26;">	</tspan><tspan x="0" y="42" class="st3" style="font-family:'Nexa-Light'; font-size:35px;">www.realsolutions.com.tr</tspan></text>
<g class="st2">
	<path class="st3" d="M642.6,280.25c-7.88,0-14.29,6.41-14.29,14.29c0,7.58,12.96,25.3,13.52,26.05l0.52,0.7
		c0.06,0.08,0.16,0.13,0.26,0.13c0.1,0,0.2-0.05,0.26-0.13l0.51-0.7c0.55-0.75,13.52-18.47,13.52-26.05
		C656.89,286.66,650.48,280.25,642.6,280.25z M642.6,289.42c2.82,0,5.12,2.3,5.12,5.12c0,2.82-2.3,5.12-5.12,5.12
		c-2.82,0-5.12-2.3-5.12-5.12C637.48,291.71,639.78,289.42,642.6,289.42z"/>
</g>
<path class="st4" d="M627.47,424.2c0,14.39,11.67,26.06,26.06,26.06c0.65,0,1.29-0.02,1.93-0.07c0.73-0.05,1.1-0.08,1.43-0.27
	c0.28-0.16,0.54-0.44,0.68-0.73c0.17-0.35,0.17-0.75,0.17-1.56v-4.74c0-0.68,0-1.02-0.11-1.31c-0.1-0.26-0.26-0.49-0.47-0.67
	c-0.24-0.2-0.55-0.32-1.19-0.55l-5.39-1.96c-0.74-0.27-1.11-0.4-1.47-0.38c-0.31,0.02-0.61,0.13-0.86,0.31
	c-0.29,0.2-0.49,0.54-0.9,1.22l-1.38,2.3c-4.45-2.02-8.07-5.63-10.09-10.09l2.3-1.38c0.68-0.41,1.02-0.61,1.22-0.9
	c0.18-0.25,0.29-0.55,0.31-0.86c0.02-0.35-0.11-0.72-0.38-1.47l-1.96-5.39c-0.23-0.64-0.35-0.96-0.55-1.19
	c-0.18-0.21-0.41-0.37-0.67-0.47c-0.29-0.11-0.63-0.11-1.31-0.11h-4.74c-0.81,0-1.21,0-1.56,0.17c-0.29,0.14-0.57,0.4-0.73,0.68
	c-0.19,0.33-0.22,0.7-0.27,1.43C627.49,422.91,627.47,423.55,627.47,424.2z"/>
<path class="st5" d="M638.41,490.55c0.33,0.63,0.67,1.19,0.99,1.69c-3.39-0.76-6.34-2.71-8.38-5.39c1.34-0.76,3.07-1.54,5.14-2.12
	C636.74,487.04,637.57,488.99,638.41,490.55z M640.97,489.18c-0.72-1.35-1.45-3.05-1.97-5.05c1.12-0.17,2.32-0.26,3.59-0.26
	c1.27,0,2.47,0.1,3.59,0.26c-0.52,2.01-1.25,3.7-1.97,5.05c-0.58,1.09-1.16,1.95-1.63,2.59
	C642.13,491.13,641.55,490.27,640.97,489.18z M638.23,478.05c0,1.13,0.08,2.21,0.21,3.22c1.3-0.2,2.68-0.31,4.15-0.31
	c1.47,0,2.86,0.11,4.15,0.31c0.13-1.02,0.21-2.09,0.21-3.22c0-1.13-0.08-2.21-0.21-3.22c-1.3,0.2-2.68,0.31-4.15,0.31
	c-1.47,0-2.86-0.12-4.15-0.31C638.31,475.84,638.23,476.91,638.23,478.05z M635.59,474.22c-0.17,1.2-0.27,2.48-0.27,3.82
	c0,1.35,0.1,2.62,0.27,3.82c-2.47,0.66-4.51,1.6-6.1,2.5c-0.92-1.91-1.44-4.06-1.44-6.32s0.52-4.41,1.44-6.32
	C631.08,472.63,633.12,473.56,635.59,474.22z M639,471.97c1.12,0.17,2.32,0.26,3.59,0.26c1.27,0,2.47-0.1,3.59-0.26
	c-0.52-2-1.25-3.7-1.97-5.05c-0.58-1.09-1.16-1.95-1.63-2.59c-0.47,0.63-1.05,1.5-1.63,2.59C640.25,468.27,639.53,469.96,639,471.97
	z M649.6,474.22c0.17,1.2,0.27,2.48,0.27,3.82c0,1.35-0.1,2.62-0.27,3.82c2.47,0.66,4.51,1.6,6.1,2.5c0.92-1.91,1.44-4.06,1.44-6.32
	c0-2.26-0.52-4.41-1.44-6.32C654.12,472.63,652.07,473.56,649.6,474.22z M654.18,469.25c-1.34,0.76-3.07,1.54-5.14,2.12
	c-0.59-2.31-1.42-4.26-2.25-5.82c-0.33-0.63-0.67-1.19-0.99-1.69C649.2,464.62,652.14,466.57,654.18,469.25z M636.16,471.36
	c-2.07-0.57-3.79-1.36-5.14-2.12c2.04-2.68,4.98-4.63,8.38-5.39c-0.32,0.5-0.65,1.06-0.99,1.69
	C637.57,467.11,636.74,469.06,636.16,471.36z M649.04,484.73c-0.59,2.31-1.42,4.26-2.25,5.82c-0.33,0.63-0.67,1.19-0.99,1.69
	c3.39-0.76,6.34-2.71,8.38-5.39C652.83,486.09,651.11,485.31,649.04,484.73z M642.6,495.5c9.64,0,17.45-7.81,17.45-17.45
	c0-9.64-7.81-17.45-17.45-17.45c-9.64,0-17.45,7.81-17.45,17.45C625.15,487.69,632.96,495.5,642.6,495.5z"/>
</svg>
